<mxfile host="app.diagrams.net" modified="2023-10-28T23:12:51.933Z" agent="Mozilla/5.0 (Macintosh; Intel Mac OS X 10_15_7) AppleWebKit/537.36 (KHTML, like Gecko) Chrome/118.0.0.0 Safari/537.36" etag="6itFBaVBuS2psAfA4-gn" version="22.0.8" type="device">
  <diagram name="Page-1" id="3o6MJAwNaVeTf3vc1tKD">
    <mxGraphModel dx="1434" dy="790" grid="1" gridSize="10" guides="1" tooltips="1" connect="1" arrows="1" fold="1" page="1" pageScale="1" pageWidth="827" pageHeight="1169" math="0" shadow="0">
      <root>
        <mxCell id="0" />
        <mxCell id="1" parent="0" />
        <mxCell id="YQeioBy7JbJZP4UAt2wU-10" value="" style="group" vertex="1" connectable="0" parent="1">
          <mxGeometry x="230" y="160" width="260" height="210" as="geometry" />
        </mxCell>
        <mxCell id="uRqeLI1dcRIBqKMP9XZm-1" value="" style="endArrow=none;html=1;rounded=0;" parent="YQeioBy7JbJZP4UAt2wU-10" edge="1">
          <mxGeometry width="50" height="50" relative="1" as="geometry">
            <mxPoint x="10" y="200" as="sourcePoint" />
            <mxPoint x="210" as="targetPoint" />
          </mxGeometry>
        </mxCell>
        <mxCell id="YQeioBy7JbJZP4UAt2wU-1" value="" style="endArrow=none;html=1;rounded=0;" edge="1" parent="YQeioBy7JbJZP4UAt2wU-10">
          <mxGeometry width="50" height="50" relative="1" as="geometry">
            <mxPoint y="200" as="sourcePoint" />
            <mxPoint x="20" y="200" as="targetPoint" />
          </mxGeometry>
        </mxCell>
        <mxCell id="YQeioBy7JbJZP4UAt2wU-6" value="" style="endArrow=none;html=1;rounded=0;" edge="1" parent="YQeioBy7JbJZP4UAt2wU-10">
          <mxGeometry width="50" height="50" relative="1" as="geometry">
            <mxPoint x="40" y="160" as="sourcePoint" />
            <mxPoint x="60" y="160" as="targetPoint" />
          </mxGeometry>
        </mxCell>
        <mxCell id="YQeioBy7JbJZP4UAt2wU-7" value="" style="endArrow=none;html=1;rounded=0;" edge="1" parent="YQeioBy7JbJZP4UAt2wU-10">
          <mxGeometry width="50" height="50" relative="1" as="geometry">
            <mxPoint x="80" y="120" as="sourcePoint" />
            <mxPoint x="100" y="120" as="targetPoint" />
          </mxGeometry>
        </mxCell>
        <mxCell id="YQeioBy7JbJZP4UAt2wU-8" value="" style="endArrow=none;html=1;rounded=0;" edge="1" parent="YQeioBy7JbJZP4UAt2wU-10">
          <mxGeometry width="50" height="50" relative="1" as="geometry">
            <mxPoint x="120" y="80" as="sourcePoint" />
            <mxPoint x="140" y="80" as="targetPoint" />
          </mxGeometry>
        </mxCell>
        <mxCell id="YQeioBy7JbJZP4UAt2wU-9" value="" style="endArrow=none;html=1;rounded=0;" edge="1" parent="YQeioBy7JbJZP4UAt2wU-10">
          <mxGeometry width="50" height="50" relative="1" as="geometry">
            <mxPoint x="160" y="40" as="sourcePoint" />
            <mxPoint x="180" y="40" as="targetPoint" />
          </mxGeometry>
        </mxCell>
        <mxCell id="YQeioBy7JbJZP4UAt2wU-24" value="&lt;font style=&quot;font-size: 14px;&quot;&gt;3&lt;/font&gt;" style="text;html=1;strokeColor=none;fillColor=none;align=center;verticalAlign=middle;whiteSpace=wrap;rounded=0;" vertex="1" parent="YQeioBy7JbJZP4UAt2wU-10">
          <mxGeometry x="16" y="130" width="60" height="30" as="geometry" />
        </mxCell>
        <mxCell id="YQeioBy7JbJZP4UAt2wU-25" value="&lt;font style=&quot;font-size: 14px;&quot;&gt;4&lt;/font&gt;" style="text;html=1;strokeColor=none;fillColor=none;align=center;verticalAlign=middle;whiteSpace=wrap;rounded=0;" vertex="1" parent="YQeioBy7JbJZP4UAt2wU-10">
          <mxGeometry x="57" y="90" width="60" height="30" as="geometry" />
        </mxCell>
        <mxCell id="YQeioBy7JbJZP4UAt2wU-28" value="&lt;font style=&quot;font-size: 14px;&quot;&gt;5&lt;/font&gt;" style="text;html=1;strokeColor=none;fillColor=none;align=center;verticalAlign=middle;whiteSpace=wrap;rounded=0;" vertex="1" parent="YQeioBy7JbJZP4UAt2wU-10">
          <mxGeometry x="98" y="50" width="60" height="30" as="geometry" />
        </mxCell>
        <mxCell id="YQeioBy7JbJZP4UAt2wU-30" value="&lt;font style=&quot;font-size: 14px;&quot;&gt;6&lt;/font&gt;" style="text;html=1;strokeColor=none;fillColor=none;align=center;verticalAlign=middle;whiteSpace=wrap;rounded=0;" vertex="1" parent="YQeioBy7JbJZP4UAt2wU-10">
          <mxGeometry x="137" y="10" width="60" height="30" as="geometry" />
        </mxCell>
        <mxCell id="YQeioBy7JbJZP4UAt2wU-38" value="&lt;font style=&quot;font-size: 14px;&quot;&gt;2&lt;/font&gt;" style="text;html=1;strokeColor=none;fillColor=none;align=center;verticalAlign=middle;whiteSpace=wrap;rounded=0;" vertex="1" parent="YQeioBy7JbJZP4UAt2wU-10">
          <mxGeometry x="57" y="140" width="60" height="30" as="geometry" />
        </mxCell>
        <mxCell id="YQeioBy7JbJZP4UAt2wU-39" value="&lt;font style=&quot;font-size: 14px;&quot;&gt;3&lt;/font&gt;" style="text;html=1;strokeColor=none;fillColor=none;align=center;verticalAlign=middle;whiteSpace=wrap;rounded=0;" vertex="1" parent="YQeioBy7JbJZP4UAt2wU-10">
          <mxGeometry x="90" y="100" width="60" height="30" as="geometry" />
        </mxCell>
        <mxCell id="YQeioBy7JbJZP4UAt2wU-40" value="&lt;font style=&quot;font-size: 14px;&quot;&gt;4&lt;/font&gt;" style="text;html=1;strokeColor=none;fillColor=none;align=center;verticalAlign=middle;whiteSpace=wrap;rounded=0;" vertex="1" parent="YQeioBy7JbJZP4UAt2wU-10">
          <mxGeometry x="130" y="60" width="60" height="30" as="geometry" />
        </mxCell>
        <mxCell id="YQeioBy7JbJZP4UAt2wU-41" value="&lt;font style=&quot;font-size: 14px;&quot;&gt;5&lt;/font&gt;" style="text;html=1;strokeColor=none;fillColor=none;align=center;verticalAlign=middle;whiteSpace=wrap;rounded=0;" vertex="1" parent="YQeioBy7JbJZP4UAt2wU-10">
          <mxGeometry x="158" y="30" width="60" height="30" as="geometry" />
        </mxCell>
        <mxCell id="YQeioBy7JbJZP4UAt2wU-42" value="&lt;font style=&quot;font-size: 14px;&quot;&gt;6&lt;/font&gt;" style="text;html=1;strokeColor=none;fillColor=none;align=center;verticalAlign=middle;whiteSpace=wrap;rounded=0;" vertex="1" parent="YQeioBy7JbJZP4UAt2wU-10">
          <mxGeometry x="180" y="10" width="60" height="30" as="geometry" />
        </mxCell>
        <mxCell id="YQeioBy7JbJZP4UAt2wU-43" value="&lt;font style=&quot;font-size: 14px;&quot;&gt;5&lt;/font&gt;" style="text;html=1;strokeColor=none;fillColor=none;align=center;verticalAlign=middle;whiteSpace=wrap;rounded=0;" vertex="1" parent="YQeioBy7JbJZP4UAt2wU-10">
          <mxGeometry x="203" y="30" width="60" height="30" as="geometry" />
        </mxCell>
        <mxCell id="YQeioBy7JbJZP4UAt2wU-12" value="" style="endArrow=none;html=1;rounded=0;" edge="1" parent="1">
          <mxGeometry width="50" height="50" relative="1" as="geometry">
            <mxPoint x="440" y="161" as="sourcePoint" />
            <mxPoint x="640" y="361" as="targetPoint" />
          </mxGeometry>
        </mxCell>
        <mxCell id="YQeioBy7JbJZP4UAt2wU-13" value="" style="endArrow=none;html=1;rounded=0;" edge="1" parent="1">
          <mxGeometry width="50" height="50" relative="1" as="geometry">
            <mxPoint x="440" y="151" as="sourcePoint" />
            <mxPoint x="440" y="171" as="targetPoint" />
          </mxGeometry>
        </mxCell>
        <mxCell id="YQeioBy7JbJZP4UAt2wU-18" value="" style="endArrow=none;html=1;rounded=0;" edge="1" parent="1">
          <mxGeometry width="50" height="50" relative="1" as="geometry">
            <mxPoint x="490" y="200" as="sourcePoint" />
            <mxPoint x="470" y="200" as="targetPoint" />
          </mxGeometry>
        </mxCell>
        <mxCell id="YQeioBy7JbJZP4UAt2wU-19" value="" style="endArrow=none;html=1;rounded=0;" edge="1" parent="1">
          <mxGeometry width="50" height="50" relative="1" as="geometry">
            <mxPoint x="530" y="240" as="sourcePoint" />
            <mxPoint x="510" y="240" as="targetPoint" />
          </mxGeometry>
        </mxCell>
        <mxCell id="YQeioBy7JbJZP4UAt2wU-20" value="" style="endArrow=none;html=1;rounded=0;" edge="1" parent="1">
          <mxGeometry width="50" height="50" relative="1" as="geometry">
            <mxPoint x="570" y="280" as="sourcePoint" />
            <mxPoint x="550" y="280" as="targetPoint" />
          </mxGeometry>
        </mxCell>
        <mxCell id="YQeioBy7JbJZP4UAt2wU-21" value="" style="endArrow=none;html=1;rounded=0;" edge="1" parent="1">
          <mxGeometry width="50" height="50" relative="1" as="geometry">
            <mxPoint x="610" y="320" as="sourcePoint" />
            <mxPoint x="590" y="320" as="targetPoint" />
          </mxGeometry>
        </mxCell>
        <mxCell id="YQeioBy7JbJZP4UAt2wU-22" value="" style="endArrow=none;html=1;rounded=0;" edge="1" parent="1">
          <mxGeometry width="50" height="50" relative="1" as="geometry">
            <mxPoint x="650" y="360" as="sourcePoint" />
            <mxPoint x="630" y="360" as="targetPoint" />
          </mxGeometry>
        </mxCell>
        <mxCell id="YQeioBy7JbJZP4UAt2wU-23" value="&lt;font style=&quot;font-size: 14px;&quot;&gt;2&lt;/font&gt;" style="text;html=1;strokeColor=none;fillColor=none;align=center;verticalAlign=middle;whiteSpace=wrap;rounded=0;" vertex="1" parent="1">
          <mxGeometry x="206" y="333" width="60" height="30" as="geometry" />
        </mxCell>
        <mxCell id="YQeioBy7JbJZP4UAt2wU-31" value="&lt;font style=&quot;font-size: 14px;&quot;&gt;7&lt;/font&gt;" style="text;html=1;strokeColor=none;fillColor=none;align=center;verticalAlign=middle;whiteSpace=wrap;rounded=0;" vertex="1" parent="1">
          <mxGeometry x="410" y="130" width="60" height="30" as="geometry" />
        </mxCell>
        <mxCell id="YQeioBy7JbJZP4UAt2wU-32" value="&lt;font style=&quot;font-size: 14px;&quot;&gt;8&lt;/font&gt;" style="text;html=1;strokeColor=none;fillColor=none;align=center;verticalAlign=middle;whiteSpace=wrap;rounded=0;" vertex="1" parent="1">
          <mxGeometry x="450" y="170" width="60" height="30" as="geometry" />
        </mxCell>
        <mxCell id="YQeioBy7JbJZP4UAt2wU-33" value="&lt;font style=&quot;font-size: 14px;&quot;&gt;9&lt;/font&gt;" style="text;html=1;strokeColor=none;fillColor=none;align=center;verticalAlign=middle;whiteSpace=wrap;rounded=0;" vertex="1" parent="1">
          <mxGeometry x="500" y="210" width="60" height="30" as="geometry" />
        </mxCell>
        <mxCell id="YQeioBy7JbJZP4UAt2wU-34" value="&lt;font style=&quot;font-size: 14px;&quot;&gt;10&lt;/font&gt;" style="text;html=1;strokeColor=none;fillColor=none;align=center;verticalAlign=middle;whiteSpace=wrap;rounded=0;" vertex="1" parent="1">
          <mxGeometry x="530" y="250" width="60" height="30" as="geometry" />
        </mxCell>
        <mxCell id="YQeioBy7JbJZP4UAt2wU-35" value="&lt;font style=&quot;font-size: 14px;&quot;&gt;11&lt;/font&gt;" style="text;html=1;strokeColor=none;fillColor=none;align=center;verticalAlign=middle;whiteSpace=wrap;rounded=0;" vertex="1" parent="1">
          <mxGeometry x="570" y="290" width="60" height="30" as="geometry" />
        </mxCell>
        <mxCell id="YQeioBy7JbJZP4UAt2wU-36" value="&lt;font style=&quot;font-size: 14px;&quot;&gt;12&lt;/font&gt;" style="text;html=1;strokeColor=none;fillColor=none;align=center;verticalAlign=middle;whiteSpace=wrap;rounded=0;" vertex="1" parent="1">
          <mxGeometry x="613" y="332" width="60" height="30" as="geometry" />
        </mxCell>
        <mxCell id="YQeioBy7JbJZP4UAt2wU-37" value="&lt;font style=&quot;font-size: 14px;&quot;&gt;1&lt;/font&gt;" style="text;html=1;strokeColor=none;fillColor=none;align=center;verticalAlign=middle;whiteSpace=wrap;rounded=0;" vertex="1" parent="1">
          <mxGeometry x="240" y="340" width="60" height="30" as="geometry" />
        </mxCell>
        <mxCell id="YQeioBy7JbJZP4UAt2wU-44" value="&lt;font style=&quot;font-size: 14px;&quot;&gt;4&lt;/font&gt;" style="text;html=1;strokeColor=none;fillColor=none;align=center;verticalAlign=middle;whiteSpace=wrap;rounded=0;" vertex="1" parent="1">
          <mxGeometry x="460" y="220" width="60" height="30" as="geometry" />
        </mxCell>
        <mxCell id="YQeioBy7JbJZP4UAt2wU-45" value="&lt;font style=&quot;font-size: 14px;&quot;&gt;3&lt;/font&gt;" style="text;html=1;strokeColor=none;fillColor=none;align=center;verticalAlign=middle;whiteSpace=wrap;rounded=0;" vertex="1" parent="1">
          <mxGeometry x="500" y="260" width="60" height="30" as="geometry" />
        </mxCell>
        <mxCell id="YQeioBy7JbJZP4UAt2wU-46" value="&lt;font style=&quot;font-size: 14px;&quot;&gt;2&lt;/font&gt;" style="text;html=1;strokeColor=none;fillColor=none;align=center;verticalAlign=middle;whiteSpace=wrap;rounded=0;" vertex="1" parent="1">
          <mxGeometry x="540" y="302" width="60" height="30" as="geometry" />
        </mxCell>
        <mxCell id="YQeioBy7JbJZP4UAt2wU-47" value="&lt;font style=&quot;font-size: 14px;&quot;&gt;1&lt;/font&gt;" style="text;html=1;strokeColor=none;fillColor=none;align=center;verticalAlign=middle;whiteSpace=wrap;rounded=0;" vertex="1" parent="1">
          <mxGeometry x="580" y="340" width="60" height="30" as="geometry" />
        </mxCell>
      </root>
    </mxGraphModel>
  </diagram>
</mxfile>
